<?xml version="1.0" encoding="utf-8"?>
<!-- Generator: Adobe Illustrator 25.2.1, SVG Export Plug-In . SVG Version: 6.00 Build 0)  -->
<svg version="1.1" id="Wordmark" xmlns="http://www.w3.org/2000/svg" xmlns:xlink="http://www.w3.org/1999/xlink" x="0px" y="0px"
	 viewBox="0 0 6770.6 1260" style="enable-background:new 0 0 6770.6 1260;" xml:space="preserve">
<style type="text/css">
	.st0{fill:#67788a;}
</style>
<g>
	<path class="st0" d="M420,839.7v-420h304.5v59.4H483v120.6h198.3v59.4H483v121.2h246.6v59.4H420z"/>
	<path class="st0" d="M832.5,839.7v-300h60v50.1c11-17.8,24.8-31.8,41.2-42c16.5-10.2,35.6-15.3,57.5-15.3h6.6
		c33.2,0,59.2,11.7,78.1,35.1c18.9,23.4,28.4,56.3,28.4,98.7v173.4h-60V673.5c0-56.8-20.6-85.2-61.8-85.2h-6
		c-20.4,0-37.8,6.3-52,18.9c-14.3,12.6-25,28.5-32,47.7v184.8H832.5z"/>
	<path class="st0" d="M1317.9,749.1c-14,0-27.2-1.4-39.6-4.2c-8,9-12,17.3-12,24.9c0,15,11.7,22.5,35.1,22.5h70.8
		c34.6,0,61,6.9,79.3,20.7c18.3,13.8,27.5,33.5,27.5,59.1c0,32-14.5,56.8-43.4,74.4c-28.9,17.6-69.4,26.4-121.6,26.4
		c-44,0-78-6.6-102-19.6c-24-13.1-36-32.1-36-56.9c0-30.4,19.3-54.2,57.9-71.4c-11.2-10.6-16.8-23.4-16.8-38.4
		c0-19,8.5-37.6,25.5-55.8c-32.6-19.4-48.9-49.4-48.9-90c0-32.2,10.9-58.3,32.8-78.3c21.9-20,52.3-30,91.3-30h5.4
		c14.4,0,27.6,1.5,39.8,4.5c12.1,3,23,7.3,32.8,12.9c11.8-22.8,32.9-34.2,63.3-34.2c7,0,14.8,0.8,23.4,2.4V567
		c-5.8-1.6-10.8-2.6-15-3c-4.2-0.4-7.8-0.6-10.8-0.6c-15,0-26.1,3.1-33.3,9.3c16,18.6,24,41.3,24,68.1c0,32-11,58.1-32.9,78.2
		c-21.9,20.1-52.3,30.2-91.3,30.2H1317.9z M1234.8,884.7c0,26,28.2,39,84.6,39c32.8,0,57.8-4.4,75-13.2
		c17.2-8.8,25.8-20.5,25.8-35.1c0-21.6-18.2-32.4-54.6-32.4h-81c-2.4,0-4.8-0.1-7.2-0.3c-13.4,4.2-23.8,9.9-31.3,17.2
		C1238.5,867.2,1234.8,875.5,1234.8,884.7z M1318.2,699.6h4.8c21.4,0,37.8-5.3,49.3-16.1c11.5-10.7,17.2-24.9,17.2-42.8
		c0-17.8-5.8-32-17.2-42.8c-11.5-10.7-28-16-49.3-16h-4.8c-21.4,0-37.9,5.4-49.4,16c-11.5,10.7-17.2,25-17.2,42.8
		c0,17.8,5.7,32.1,17.2,42.8C1280.3,694.2,1296.8,699.6,1318.2,699.6z"/>
	<path class="st0" d="M1587.3,486.3c-12.2,0-21.9-3.8-28.9-11.2c-7.1-7.5-10.7-17-10.7-28.7c0-11.8,3.5-21.4,10.7-28.8
		c7.1-7.4,16.7-11.1,28.9-11.1c12.4,0,22.1,3.7,29.1,11.1c7,7.4,10.5,17,10.5,28.8c0,11.6-3.5,21.2-10.5,28.7
		C1609.4,482.5,1599.7,486.3,1587.3,486.3z M1557.3,839.7v-300h60v300H1557.3z"/>
	<path class="st0" d="M1726.5,839.7v-300h60v50.1c11-17.8,24.8-31.8,41.2-42c16.5-10.2,35.6-15.3,57.5-15.3h6.6
		c33.2,0,59.2,11.7,78.1,35.1c18.9,23.4,28.4,56.3,28.4,98.7v173.4h-60V673.5c0-56.8-20.6-85.2-61.8-85.2h-6
		c-20.4,0-37.8,6.3-52,18.9c-14.3,12.6-25,28.5-32,47.7v184.8H1726.5z"/>
	<path class="st0" d="M2230.5,846.9c-28.8,0-54.1-6.6-75.8-19.8c-21.7-13.2-38.6-31.6-50.7-55.2c-12.1-23.6-18.2-50.9-18.2-81.9
		c0-31,6-58.4,18.2-82.1c12.1-23.7,29-42.2,50.7-55.5c21.7-13.3,47-19.9,75.8-19.9h6.6c26.2,0,49.2,6.4,69.2,19.3
		c19.9,12.9,35.4,31.5,46.6,55.8c11.2,24.3,16.8,53.6,16.8,87.8v18.3H2148c3.6,24.6,12.8,43.9,27.8,58.1
		c14.9,14.1,34.3,21.1,58.3,21.1h6c14.4,0,28.2-2.9,41.4-8.8c13.2-5.9,24.3-13.8,33.3-23.8l36.9,39c-13.6,14.6-30.4,26.2-50.2,34.8
		c-19.9,8.6-41.4,12.9-64.4,12.9H2230.5z M2228.7,586.5c-21.4,0-39.3,7-53.6,21.1c-14.3,14.1-23.4,33.4-27.1,57.8h161.4
		c-1.8-22.2-9.1-40.9-21.8-56.1c-12.7-15.2-30.4-22.8-52.9-22.8H2228.7z"/>
	<path class="st0" d="M2589,846.9c-28.8,0-54.1-6.6-75.8-19.8c-21.7-13.2-38.6-31.6-50.7-55.2c-12.1-23.6-18.2-50.9-18.2-81.9
		c0-31,6-58.4,18.2-82.1c12.1-23.7,29-42.2,50.7-55.5c21.7-13.3,47-19.9,75.8-19.9h6.6c26.2,0,49.2,6.4,69.2,19.3
		c19.9,12.9,35.4,31.5,46.6,55.8c11.2,24.3,16.8,53.6,16.8,87.8v18.3h-221.7c3.6,24.6,12.8,43.9,27.8,58.1
		c14.9,14.1,34.3,21.1,58.3,21.1h6c14.4,0,28.2-2.9,41.4-8.8c13.2-5.9,24.3-13.8,33.3-23.8l36.9,39c-13.6,14.6-30.4,26.2-50.2,34.8
		c-19.9,8.6-41.4,12.9-64.4,12.9H2589z M2587.2,586.5c-21.4,0-39.3,7-53.6,21.1c-14.3,14.1-23.4,33.4-27.1,57.8h161.4
		c-1.8-22.2-9.1-40.9-21.8-56.1c-12.7-15.2-30.4-22.8-52.9-22.8H2587.2z"/>
	<path class="st0" d="M2819.4,839.7v-300h60v45.6c20-35.2,47.5-52.8,82.5-52.8c9.6,0,18.3,0.8,26.1,2.4v60.6
		c-4.8-0.6-10-1.1-15.5-1.5c-5.5-0.4-10.9-0.6-16-0.6c-19.8,0-36,5.7-48.6,17.1c-12.6,11.4-22.1,27-28.5,46.8v182.4H2819.4z"/>
	<path class="st0" d="M3097.2,486.3c-12.2,0-21.9-3.8-28.9-11.2c-7.1-7.5-10.7-17-10.7-28.7c0-11.8,3.5-21.4,10.7-28.8
		c7.1-7.4,16.7-11.1,28.9-11.1c12.4,0,22.1,3.7,29.1,11.1c7,7.4,10.5,17,10.5,28.8c0,11.6-3.5,21.2-10.5,28.7
		C3119.3,482.5,3109.6,486.3,3097.2,486.3z M3067.2,839.7v-300h60v300H3067.2z"/>
	<path class="st0" d="M3236.4,839.7v-300h60v50.1c11-17.8,24.8-31.8,41.2-42c16.5-10.2,35.6-15.3,57.5-15.3h6.6
		c33.2,0,59.2,11.7,78.2,35.1s28.3,56.3,28.3,98.7v173.4h-60V673.5c0-56.8-20.6-85.2-61.8-85.2h-6c-20.4,0-37.8,6.3-52,18.9
		c-14.3,12.6-25,28.5-32,47.7v184.8H3236.4z"/>
	<path class="st0" d="M3721.8,749.1c-14,0-27.2-1.4-39.6-4.2c-8,9-12,17.3-12,24.9c0,15,11.7,22.5,35.1,22.5h70.8
		c34.6,0,61,6.9,79.3,20.7c18.3,13.8,27.4,33.5,27.4,59.1c0,32-14.5,56.8-43.3,74.4c-28.9,17.6-69.4,26.4-121.7,26.4
		c-44,0-78-6.6-102-19.6c-24-13.1-36-32.1-36-56.9c0-30.4,19.3-54.2,57.9-71.4c-11.2-10.6-16.8-23.4-16.8-38.4
		c0-19,8.5-37.6,25.5-55.8c-32.6-19.4-48.9-49.4-48.9-90c0-32.2,10.9-58.3,32.8-78.3c21.9-20,52.3-30,91.3-30h5.4
		c14.4,0,27.6,1.5,39.8,4.5c12.1,3,23,7.3,32.8,12.9c11.8-22.8,32.9-34.2,63.3-34.2c7,0,14.8,0.8,23.4,2.4V567
		c-5.8-1.6-10.8-2.6-15-3c-4.2-0.4-7.8-0.6-10.8-0.6c-15,0-26.1,3.1-33.3,9.3c16,18.6,24,41.3,24,68.1c0,32-10.9,58.1-32.8,78.2
		s-52.3,30.2-91.3,30.2H3721.8z M3638.7,884.7c0,26,28.2,39,84.6,39c32.8,0,57.8-4.4,75-13.2c17.2-8.8,25.8-20.5,25.8-35.1
		c0-21.6-18.2-32.4-54.6-32.4h-81c-2.4,0-4.8-0.1-7.2-0.3c-13.4,4.2-23.8,9.9-31.3,17.2C3642.4,867.2,3638.7,875.5,3638.7,884.7z
		 M3722.1,699.6h4.8c21.4,0,37.8-5.3,49.3-16.1c11.5-10.7,17.2-24.9,17.2-42.8c0-17.8-5.8-32-17.2-42.8c-11.5-10.7-28-16-49.3-16
		h-4.8c-21.4,0-37.9,5.4-49.4,16c-11.5,10.7-17.2,25-17.2,42.8c0,17.8,5.7,32.1,17.2,42.8C3684.2,694.2,3700.6,699.6,3722.1,699.6z"
		/>
	<path class="st0" d="M4195.7,845.7c-31.6,0-56.2-8.1-73.7-24.4c-17.5-16.3-26.2-37.8-26.2-64.4c0-26.4,9.8-48.5,29.5-66.3
		c19.7-17.8,51.2-26.7,94.4-26.7h81.6V663c0-50.4-23.2-75.6-69.6-75.6c-19.4,0-35.8,3.5-49.1,10.5c-13.3,7-24.1,16.8-32.2,29.4
		l-41.1-33.3c12.8-19.8,29.6-35,50.5-45.6c20.9-10.6,44.6-15.9,71.2-15.9h6.6c36.8,0,66.4,10.6,88.8,31.8
		c22.4,21.2,33.6,52.9,33.6,95.1v180.3h-57.6v-48.9c-11.6,17.6-26.5,31.2-44.7,40.7C4239.6,840.9,4218.9,845.7,4195.7,845.7z
		 M4208.9,792.3c23.2,0,42.5-5.2,57.9-15.8c15.4-10.5,26.9-24.8,34.5-42.8V711h-79.2c-23.6,0-40.5,3.8-50.5,11.2
		c-10.1,7.5-15.2,17.7-15.2,30.4C4156.4,779.1,4173.9,792.3,4208.9,792.3z"/>
	<path class="st0" d="M4599.2,843.6c-35.6,0-62.7-9-81.3-27s-27.9-45.7-27.9-83.1V591.9h-58.8v-52.2h58.8v-89.4h60v89.4h101.1v52.2
		H4550v133.5c0,23.6,4.9,40,14.7,49.2c9.8,9.2,24.3,13.8,43.5,13.8c9.2,0,17.4-0.4,24.8-1.2c7.3-0.8,14.9-1.8,22.7-3v52.5
		c-8,2-17,3.6-27,4.9C4618.6,842.9,4608.8,843.6,4599.2,843.6z"/>
	<path class="st0" d="M4905.5,839.7v-420h75l147,257.7l146.1-257.7h75v420h-61.2V507.3L5156,738.9h-57.9l-131.4-230.1v330.9H4905.5z
		"/>
	<path class="st0" d="M5600,846.9c-28.8,0-54.1-6.6-75.8-19.8c-21.7-13.2-38.6-31.6-50.7-55.2c-12.1-23.6-18.2-50.9-18.2-81.9
		c0-31,6-58.4,18.2-82.1c12.1-23.7,29-42.2,50.7-55.5c21.7-13.3,47-19.9,75.8-19.9h6.6c26.2,0,49.2,6.4,69.1,19.3
		c19.9,12.9,35.4,31.5,46.7,55.8c11.2,24.3,16.8,53.6,16.8,87.8v18.3h-221.7c3.6,24.6,12.8,43.9,27.8,58.1
		c14.9,14.1,34.4,21.1,58.4,21.1h6c14.4,0,28.2-2.9,41.4-8.8c13.2-5.9,24.3-13.8,33.3-23.8l36.9,39c-13.6,14.6-30.4,26.2-50.2,34.8
		c-19.9,8.6-41.4,12.9-64.3,12.9H5600z M5598.2,586.5c-21.4,0-39.3,7-53.6,21.1c-14.3,14.1-23.4,33.4-27.2,57.8h161.4
		c-1.8-22.2-9.1-40.9-21.8-56.1c-12.7-15.2-30.4-22.8-52.9-22.8H5598.2z"/>
	<path class="st0" d="M5965.4,843.6c-35.6,0-62.7-9-81.3-27c-18.6-18-27.9-45.7-27.9-83.1V591.9h-58.8v-52.2h58.8v-89.4h60v89.4
		h101.1v52.2h-101.1v133.5c0,23.6,4.9,40,14.7,49.2c9.8,9.2,24.3,13.8,43.5,13.8c9.2,0,17.4-0.4,24.8-1.2c7.3-0.8,14.8-1.8,22.7-3
		v52.5c-8,2-17,3.6-27,4.9C5984.8,842.9,5975,843.6,5965.4,843.6z"/>
	<path class="st0" d="M6186.2,845.7c-31.6,0-56.2-8.1-73.6-24.4c-17.5-16.3-26.2-37.8-26.2-64.4c0-26.4,9.8-48.5,29.5-66.3
		c19.7-17.8,51.2-26.7,94.3-26.7h81.6V663c0-50.4-23.2-75.6-69.6-75.6c-19.4,0-35.8,3.5-49,10.5c-13.3,7-24.1,16.8-32.2,29.4
		l-41.1-33.3c12.8-19.8,29.6-35,50.5-45.6c20.9-10.6,44.6-15.9,71.2-15.9h6.6c36.8,0,66.4,10.6,88.8,31.8
		c22.4,21.2,33.6,52.9,33.6,95.1v180.3H6293v-48.9c-11.6,17.6-26.5,31.2-44.7,40.7C6230.1,840.9,6209.4,845.7,6186.2,845.7z
		 M6199.4,792.3c23.2,0,42.5-5.2,57.9-15.8c15.4-10.5,26.9-24.8,34.5-42.8V711h-79.2c-23.6,0-40.5,3.8-50.5,11.2
		c-10.1,7.5-15.2,17.7-15.2,30.4C6146.9,779.1,6164.4,792.3,6199.4,792.3z"/>
</g>
</svg>
